<svg xmlns="http://www.w3.org/2000/svg" width="24.84" height="24.84" viewBox="0 0 24.84 24.84">
  <path id="clone" d="M19.665,0h-6.21A5.181,5.181,0,0,0,8.28,5.175v6.21a5.181,5.181,0,0,0,5.175,5.175h6.21a5.181,5.181,0,0,0,5.175-5.175V5.175A5.181,5.181,0,0,0,19.665,0Zm3.1,11.385a3.109,3.109,0,0,1-3.1,3.1h-6.21a3.109,3.109,0,0,1-3.1-3.1V5.175a3.109,3.109,0,0,1,3.1-3.1h6.21a3.109,3.109,0,0,1,3.1,3.1Zm-6.21,8.28a5.181,5.181,0,0,1-5.175,5.175H5.175A5.181,5.181,0,0,1,0,19.665v-6.21A5.181,5.181,0,0,1,5.175,8.28a1.035,1.035,0,1,1,0,2.07,3.109,3.109,0,0,0-3.1,3.1v6.21a3.109,3.109,0,0,0,3.1,3.1h6.21a3.109,3.109,0,0,0,3.1-3.1,1.035,1.035,0,0,1,2.07,0Z" fill="#fff"/>
</svg>
