<svg xmlns="http://www.w3.org/2000/svg" width="17.305" height="17.305" viewBox="0 0 17.305 17.305">
  <g id="arrow-circle-left" transform="translate(0 17.305) rotate(-90)">
    <path id="Path_58" data-name="Path 58" d="M8.652,0A8.652,8.652,0,1,0,17.3,8.652,8.662,8.662,0,0,0,8.652,0Zm0,16.584a7.931,7.931,0,1,1,7.931-7.931A7.941,7.941,0,0,1,8.652,16.584Z" fill="#fff"/>
    <path id="Path_59" data-name="Path 59" d="M14.294,10.105h-7.5A1.064,1.064,0,0,1,7,9.75c.192-.217.38-.423.517-.56L9.555,7.114a.361.361,0,1,0-.514-.506L7,8.681c-.143.143-.342.361-.545.59a1.8,1.8,0,0,0,0,2.388c.2.229.4.448.543.588l2.039,2.076a.357.357,0,0,0,.257.107.361.361,0,0,0,.257-.614L7.514,11.738C7.379,11.6,7.191,11.4,7,11.18a1.062,1.062,0,0,1-.206-.355h7.5a.361.361,0,1,0,0-.721Z" transform="translate(-1.676 -1.813)" fill="#fff"/>
  </g>
</svg>
