<svg xmlns="http://www.w3.org/2000/svg" width="58" height="58" viewBox="0 0 58 58">
  <g id="Instagram_icon_-_pe" data-name="Instagram icon - pe" transform="translate(-4431.5 -5962.5)">
    <g id="Group_77" data-name="Group 77">
      <rect id="Rectangle_441" data-name="Rectangle 441" width="56" height="56" rx="28" transform="translate(4432.5 5963.5)" fill="#9DDE8B" stroke="" stroke-width="2"/>
      <path id="Path_401" data-name="Path 401" d="M28.188,27.388a3.353,3.353,0,0,1-2.221,1.34,3.4,3.4,0,0,1-2.5-.633,3.353,3.353,0,0,1-1.34-2.221,3.4,3.4,0,0,1,2.849-3.845,4.674,4.674,0,0,1,.5-.037,3.078,3.078,0,0,1,.5.037A3.385,3.385,0,0,1,28.2,27.4Zm-12.931,3.68v-11.3a4.523,4.523,0,0,1,4.516-4.516h11.3a4.523,4.523,0,0,1,4.511,4.516v11.3a4.523,4.523,0,0,1-4.511,4.511h-11.3a4.523,4.523,0,0,1-4.516-4.511Zm22.584,0v-11.3A6.779,6.779,0,0,0,31.069,13h-11.3A6.779,6.779,0,0,0,13,19.772v11.3a6.779,6.779,0,0,0,6.773,6.772h11.3a6.779,6.779,0,0,0,6.772-6.772ZM31.628,20.331a1.132,1.132,0,0,0,.8-.321,1.16,1.16,0,0,0,.339-.807,1.114,1.114,0,0,0-.339-.789,1.165,1.165,0,0,0-1.6,0,1.152,1.152,0,0,0-.339.789,1.139,1.139,0,0,0,.339.807,1.108,1.108,0,0,0,.8.321Zm-.569,4.212A5.6,5.6,0,0,0,26.3,19.78a6.22,6.22,0,0,0-1.652,0A5.641,5.641,0,0,0,22.111,29.9a5.561,5.561,0,0,0,3.349,1.106,6.51,6.51,0,0,0,.844-.055,5.692,5.692,0,0,0,3.7-2.217,5.577,5.577,0,0,0,1.121-3.361,5.123,5.123,0,0,0-.064-.835Z" transform="translate(4435 5966)" fill="#fff"/>
    </g>
  </g>
</svg>
