<svg xmlns="http://www.w3.org/2000/svg" width="58" height="58" viewBox="0 0 58 58">
  <g id="LinkedIn_icon_-_pe" data-name="LinkedIn icon - pe" transform="translate(-4295.5 -5962.5)">
    <g id="Group_79" data-name="Group 79">
      <rect id="Rectangle_441" data-name="Rectangle 441" width="56" height="56" rx="28" transform="translate(4296.5 5963.5)" fill="#40A578" stroke="none" stroke-width="2"/>
      <path id="Path_396" data-name="Path 396" d="M26.52,37.833V28.477a3.734,3.734,0,0,1,.18-1.353,3.05,3.05,0,0,1,2.855-2.029c2.022,0,2.818,1.533,2.818,3.78v8.958h5.562v-9.6c0-5.133-2.743-7.531-6.41-7.531a5.529,5.529,0,0,0-5.013,2.758V21.089H20.953c.068,1.578,0,16.752,0,16.752h5.562Zm-14.212,0H17.87V21.081H12.309Zm2.736-19.028h.045a2.906,2.906,0,1,0,.038-5.8,2.9,2.9,0,1,0-.083,5.8Z" transform="translate(4299 5966)" fill="#fff"/>
    </g>
  </g>
</svg>
