<svg xmlns="http://www.w3.org/2000/svg" width="270.884" height="270.884" viewBox="0 0 270.884 270.884">
  <g id="Vector_Smart_Object_copy_2" data-name="Vector Smart Object copy 2" transform="translate(-1104.116 -2893)">
    <g id="Vector_Smart_Object_copy_2-2" data-name="Vector Smart Object copy 2" transform="translate(1104.116 2892.996)">
      <rect id="Rectangle_2" data-name="Rectangle 2" width="10.836" height="10.832" transform="translate(86.688 0.004)" fill="#204620"/>
      <rect id="Rectangle_3" data-name="Rectangle 3" width="10.831" height="10.832" transform="translate(97.524 0.004)" fill="#204620"/>
      <rect id="Rectangle_4" data-name="Rectangle 4" width="10.836" height="10.832" transform="translate(119.195 0.004)" fill="#204620"/>
      <rect id="Rectangle_5" data-name="Rectangle 5" width="10.836" height="10.832" transform="translate(140.862 0.004)" fill="#204620"/>
      <rect id="Rectangle_6" data-name="Rectangle 6" width="10.831" height="10.832" transform="translate(151.701 0.004)" fill="#204620"/>
      <rect id="Rectangle_7" data-name="Rectangle 7" width="10.836" height="10.832" transform="translate(162.533 0.004)" fill="#204620"/>
      <rect id="Rectangle_8" data-name="Rectangle 8" width="10.831" height="10.832" transform="translate(173.368 0.004)" fill="#204620"/>
      <rect id="Rectangle_9" data-name="Rectangle 9" width="10.836" height="10.836" transform="translate(140.862 10.836)" fill="#204620"/>
      <rect id="Rectangle_10" data-name="Rectangle 10" width="10.836" height="10.836" transform="translate(108.359 21.672)" fill="#204620"/>
      <rect id="Rectangle_11" data-name="Rectangle 11" width="10.836" height="10.836" transform="translate(151.697 21.672)" fill="#204620"/>
      <rect id="Rectangle_12" data-name="Rectangle 12" width="10.836" height="10.836" transform="translate(173.368 21.672)" fill="#204620"/>
      <rect id="Rectangle_13" data-name="Rectangle 13" width="10.836" height="10.836" transform="translate(86.688 32.508)" fill="#204620"/>
      <rect id="Rectangle_14" data-name="Rectangle 14" width="10.836" height="10.836" transform="translate(97.524 32.508)" fill="#204620"/>
      <rect id="Rectangle_15" data-name="Rectangle 15" width="10.836" height="10.836" transform="translate(108.359 32.508)" fill="#204620"/>
      <rect id="Rectangle_16" data-name="Rectangle 16" width="10.836" height="10.836" transform="translate(119.195 32.508)" fill="#204620"/>
      <rect id="Rectangle_17" data-name="Rectangle 17" width="10.836" height="10.836" transform="translate(130.03 32.508)" fill="#204620"/>
      <rect id="Rectangle_18" data-name="Rectangle 18" width="10.836" height="10.836" transform="translate(140.862 32.508)" fill="#204620"/>
      <rect id="Rectangle_19" data-name="Rectangle 19" width="10.836" height="10.836" transform="translate(151.697 32.508)" fill="#204620"/>
      <rect id="Rectangle_20" data-name="Rectangle 20" width="10.836" height="10.836" transform="translate(162.533 32.508)" fill="#204620"/>
      <rect id="Rectangle_21" data-name="Rectangle 21" width="10.836" height="10.836" transform="translate(86.688 43.343)" fill="#204620"/>
      <rect id="Rectangle_22" data-name="Rectangle 22" width="10.836" height="10.836" transform="translate(97.524 43.343)" fill="#204620"/>
      <rect id="Rectangle_23" data-name="Rectangle 23" width="10.836" height="10.836" transform="translate(108.359 43.343)" fill="#204620"/>
      <rect id="Rectangle_24" data-name="Rectangle 24" width="10.836" height="10.836" transform="translate(140.862 43.343)" fill="#204620"/>
      <rect id="Rectangle_25" data-name="Rectangle 25" width="10.836" height="10.836" transform="translate(162.533 43.343)" fill="#204620"/>
      <rect id="Rectangle_26" data-name="Rectangle 26" width="10.836" height="10.836" transform="translate(173.368 43.343)" fill="#204620"/>
      <rect id="Rectangle_27" data-name="Rectangle 27" width="10.836" height="10.836" transform="translate(86.688 54.179)" fill="#204620"/>
      <rect id="Rectangle_28" data-name="Rectangle 28" width="10.836" height="10.836" transform="translate(119.195 54.179)" fill="#204620"/>
      <rect id="Rectangle_29" data-name="Rectangle 29" width="10.836" height="10.836" transform="translate(130.03 54.179)" fill="#204620"/>
      <rect id="Rectangle_30" data-name="Rectangle 30" width="10.836" height="10.836" transform="translate(151.697 54.179)" fill="#204620"/>
      <rect id="Rectangle_31" data-name="Rectangle 31" width="10.836" height="10.836" transform="translate(173.368 54.179)" fill="#204620"/>
      <rect id="Rectangle_32" data-name="Rectangle 32" width="10.836" height="10.836" transform="translate(86.688 65.011)" fill="#204620"/>
      <rect id="Rectangle_33" data-name="Rectangle 33" width="10.836" height="10.836" transform="translate(108.359 65.011)" fill="#204620"/>
      <rect id="Rectangle_34" data-name="Rectangle 34" width="10.836" height="10.836" transform="translate(130.03 65.011)" fill="#204620"/>
      <rect id="Rectangle_35" data-name="Rectangle 35" width="10.836" height="10.836" transform="translate(151.697 65.011)" fill="#204620"/>
      <rect id="Rectangle_36" data-name="Rectangle 36" width="10.836" height="10.836" transform="translate(173.368 65.011)" fill="#204620"/>
      <rect id="Rectangle_37" data-name="Rectangle 37" width="10.836" height="10.836" transform="translate(86.688 75.847)" fill="#204620"/>
      <rect id="Rectangle_38" data-name="Rectangle 38" width="10.836" height="10.836" transform="translate(97.524 75.847)" fill="#204620"/>
      <rect id="Rectangle_39" data-name="Rectangle 39" width="10.836" height="10.836" transform="translate(108.359 75.847)" fill="#204620"/>
      <rect id="Rectangle_40" data-name="Rectangle 40" width="10.836" height="10.836" transform="translate(119.195 75.847)" fill="#204620"/>
      <rect id="Rectangle_41" data-name="Rectangle 41" width="10.836" height="10.836" transform="translate(130.03 75.847)" fill="#204620"/>
      <rect id="Rectangle_42" data-name="Rectangle 42" width="10.836" height="10.836" transform="translate(151.697 75.847)" fill="#204620"/>
      <rect id="Rectangle_43" data-name="Rectangle 43" width="10.831" height="10.836" transform="translate(0.008 86.683)" fill="#204620"/>
      <rect id="Rectangle_44" data-name="Rectangle 44" width="10.836" height="10.836" transform="translate(43.346 86.683)" fill="#204620"/>
      <rect id="Rectangle_45" data-name="Rectangle 45" width="10.836" height="10.836" transform="translate(65.017 86.683)" fill="#204620"/>
      <rect id="Rectangle_46" data-name="Rectangle 46" width="10.836" height="10.836" transform="translate(75.853 86.683)" fill="#204620"/>
      <rect id="Rectangle_47" data-name="Rectangle 47" width="10.836" height="10.836" transform="translate(86.688 86.683)" fill="#204620"/>
      <rect id="Rectangle_48" data-name="Rectangle 48" width="10.836" height="10.836" transform="translate(97.524 86.683)" fill="#204620"/>
      <rect id="Rectangle_49" data-name="Rectangle 49" width="10.836" height="10.836" transform="translate(130.03 86.683)" fill="#204620"/>
      <rect id="Rectangle_50" data-name="Rectangle 50" width="10.836" height="10.836" transform="translate(162.533 86.683)" fill="#204620"/>
      <rect id="Rectangle_51" data-name="Rectangle 51" width="10.836" height="10.836" transform="translate(184.204 86.683)" fill="#204620"/>
      <rect id="Rectangle_52" data-name="Rectangle 52" width="10.836" height="10.836" transform="translate(195.039 86.683)" fill="#204620"/>
      <rect id="Rectangle_53" data-name="Rectangle 53" width="10.836" height="10.836" transform="translate(205.875 86.683)" fill="#204620"/>
      <rect id="Rectangle_54" data-name="Rectangle 54" width="10.836" height="10.836" transform="translate(216.71 86.683)" fill="#204620"/>
      <rect id="Rectangle_55" data-name="Rectangle 55" width="10.836" height="10.836" transform="translate(227.546 86.683)" fill="#204620"/>
      <rect id="Rectangle_56" data-name="Rectangle 56" width="10.831" height="10.836" transform="translate(260.052 86.683)" fill="#204620"/>
      <rect id="Rectangle_57" data-name="Rectangle 57" width="10.831" height="10.832" transform="translate(0.008 97.523)" fill="#204620"/>
      <rect id="Rectangle_58" data-name="Rectangle 58" width="10.836" height="10.836" transform="translate(10.84 97.518)" fill="#204620"/>
      <rect id="Rectangle_59" data-name="Rectangle 59" width="10.836" height="10.836" transform="translate(21.675 97.518)" fill="#204620"/>
      <rect id="Rectangle_60" data-name="Rectangle 60" width="10.836" height="10.836" transform="translate(54.182 97.518)" fill="#204620"/>
      <rect id="Rectangle_61" data-name="Rectangle 61" width="10.836" height="10.836" transform="translate(75.853 97.518)" fill="#204620"/>
      <rect id="Rectangle_62" data-name="Rectangle 62" width="10.836" height="10.836" transform="translate(119.195 97.518)" fill="#204620"/>
      <rect id="Rectangle_63" data-name="Rectangle 63" width="10.836" height="10.836" transform="translate(130.03 97.518)" fill="#204620"/>
      <rect id="Rectangle_64" data-name="Rectangle 64" width="10.836" height="10.836" transform="translate(140.862 97.518)" fill="#204620"/>
      <rect id="Rectangle_65" data-name="Rectangle 65" width="10.836" height="10.836" transform="translate(162.533 97.518)" fill="#204620"/>
      <rect id="Rectangle_66" data-name="Rectangle 66" width="10.836" height="10.836" transform="translate(173.368 97.518)" fill="#204620"/>
      <rect id="Rectangle_67" data-name="Rectangle 67" width="10.836" height="10.836" transform="translate(216.71 97.518)" fill="#204620"/>
      <rect id="Rectangle_68" data-name="Rectangle 68" width="10.836" height="10.836" transform="translate(227.546 97.518)" fill="#204620"/>
      <rect id="Rectangle_69" data-name="Rectangle 69" width="10.836" height="10.836" transform="translate(249.217 97.518)" fill="#204620"/>
      <rect id="Rectangle_70" data-name="Rectangle 70" width="10.836" height="10.836" transform="translate(10.84 108.354)" fill="#204620"/>
      <rect id="Rectangle_71" data-name="Rectangle 71" width="10.836" height="10.836" transform="translate(21.675 108.354)" fill="#204620"/>
      <rect id="Rectangle_72" data-name="Rectangle 72" width="10.836" height="10.836" transform="translate(54.182 108.354)" fill="#204620"/>
      <rect id="Rectangle_73" data-name="Rectangle 73" width="10.836" height="10.836" transform="translate(65.017 108.354)" fill="#204620"/>
      <rect id="Rectangle_74" data-name="Rectangle 74" width="10.836" height="10.836" transform="translate(75.853 108.354)" fill="#204620"/>
      <rect id="Rectangle_75" data-name="Rectangle 75" width="10.836" height="10.836" transform="translate(97.524 108.354)" fill="#204620"/>
      <rect id="Rectangle_76" data-name="Rectangle 76" width="10.836" height="10.836" transform="translate(151.697 108.354)" fill="#204620"/>
      <rect id="Rectangle_77" data-name="Rectangle 77" width="10.836" height="10.836" transform="translate(162.533 108.354)" fill="#204620"/>
      <rect id="Rectangle_78" data-name="Rectangle 78" width="10.836" height="10.836" transform="translate(173.368 108.354)" fill="#204620"/>
      <rect id="Rectangle_79" data-name="Rectangle 79" width="10.836" height="10.836" transform="translate(205.875 108.354)" fill="#204620"/>
      <rect id="Rectangle_80" data-name="Rectangle 80" width="10.836" height="10.836" transform="translate(216.71 108.354)" fill="#204620"/>
      <rect id="Rectangle_81" data-name="Rectangle 81" width="10.836" height="10.836" transform="translate(227.546 108.354)" fill="#204620"/>
      <rect id="Rectangle_82" data-name="Rectangle 82" width="10.836" height="10.836" transform="translate(238.381 108.354)" fill="#204620"/>
      <rect id="Rectangle_83" data-name="Rectangle 83" width="10.836" height="10.836" transform="translate(54.182 119.19)" fill="#204620"/>
      <rect id="Rectangle_84" data-name="Rectangle 84" width="10.836" height="10.836" transform="translate(86.688 119.19)" fill="#204620"/>
      <rect id="Rectangle_85" data-name="Rectangle 85" width="10.836" height="10.836" transform="translate(108.359 119.19)" fill="#204620"/>
      <rect id="Rectangle_86" data-name="Rectangle 86" width="10.836" height="10.836" transform="translate(130.03 119.19)" fill="#204620"/>
      <rect id="Rectangle_87" data-name="Rectangle 87" width="10.836" height="10.836" transform="translate(205.875 119.19)" fill="#204620"/>
      <rect id="Rectangle_88" data-name="Rectangle 88" width="10.836" height="10.836" transform="translate(238.381 119.19)" fill="#204620"/>
      <rect id="Rectangle_89" data-name="Rectangle 89" width="10.836" height="10.836" transform="translate(249.217 119.19)" fill="#204620"/>
      <rect id="Rectangle_90" data-name="Rectangle 90" width="10.836" height="10.836" transform="translate(21.675 130.026)" fill="#204620"/>
      <rect id="Rectangle_91" data-name="Rectangle 91" width="10.836" height="10.836" transform="translate(54.182 130.026)" fill="#204620"/>
      <rect id="Rectangle_92" data-name="Rectangle 92" width="10.836" height="10.836" transform="translate(65.017 130.026)" fill="#204620"/>
      <rect id="Rectangle_93" data-name="Rectangle 93" width="10.836" height="10.836" transform="translate(75.853 130.026)" fill="#204620"/>
      <rect id="Rectangle_94" data-name="Rectangle 94" width="10.836" height="10.836" transform="translate(119.195 130.026)" fill="#204620"/>
      <rect id="Rectangle_95" data-name="Rectangle 95" width="10.836" height="10.836" transform="translate(130.03 130.026)" fill="#204620"/>
      <rect id="Rectangle_96" data-name="Rectangle 96" width="10.836" height="10.836" transform="translate(151.697 130.026)" fill="#204620"/>
      <rect id="Rectangle_97" data-name="Rectangle 97" width="10.836" height="10.836" transform="translate(184.204 130.026)" fill="#204620"/>
      <rect id="Rectangle_98" data-name="Rectangle 98" width="10.836" height="10.836" transform="translate(195.039 130.026)" fill="#204620"/>
      <rect id="Rectangle_99" data-name="Rectangle 99" width="10.836" height="10.836" transform="translate(227.546 130.026)" fill="#204620"/>
      <rect id="Rectangle_100" data-name="Rectangle 100" width="10.836" height="10.836" transform="translate(238.381 130.026)" fill="#204620"/>
      <rect id="Rectangle_101" data-name="Rectangle 101" width="10.836" height="10.836" transform="translate(249.217 130.026)" fill="#204620"/>
      <rect id="Rectangle_102" data-name="Rectangle 102" width="10.831" height="10.836" transform="translate(260.052 130.026)" fill="#204620"/>
      <rect id="Rectangle_103" data-name="Rectangle 103" width="10.831" height="10.836" transform="translate(0.008 140.862)" fill="#204620"/>
      <rect id="Rectangle_104" data-name="Rectangle 104" width="10.836" height="10.836" transform="translate(21.675 140.862)" fill="#204620"/>
      <rect id="Rectangle_105" data-name="Rectangle 105" width="10.836" height="10.836" transform="translate(54.182 140.862)" fill="#204620"/>
      <rect id="Rectangle_106" data-name="Rectangle 106" width="10.836" height="10.836" transform="translate(75.853 140.862)" fill="#204620"/>
      <rect id="Rectangle_107" data-name="Rectangle 107" width="10.836" height="10.836" transform="translate(97.524 140.862)" fill="#204620"/>
      <rect id="Rectangle_108" data-name="Rectangle 108" width="10.836" height="10.836" transform="translate(151.697 140.862)" fill="#204620"/>
      <rect id="Rectangle_109" data-name="Rectangle 109" width="10.836" height="10.836" transform="translate(162.533 140.862)" fill="#204620"/>
      <rect id="Rectangle_110" data-name="Rectangle 110" width="10.836" height="10.836" transform="translate(173.368 140.862)" fill="#204620"/>
      <rect id="Rectangle_111" data-name="Rectangle 111" width="10.836" height="10.836" transform="translate(216.71 140.862)" fill="#204620"/>
      <rect id="Rectangle_112" data-name="Rectangle 112" width="10.836" height="10.836" transform="translate(249.217 140.862)" fill="#204620"/>
      <rect id="Rectangle_113" data-name="Rectangle 113" width="10.836" height="10.836" transform="translate(32.511 151.698)" fill="#204620"/>
      <rect id="Rectangle_114" data-name="Rectangle 114" width="10.836" height="10.836" transform="translate(43.346 151.698)" fill="#204620"/>
      <rect id="Rectangle_115" data-name="Rectangle 115" width="10.836" height="10.836" transform="translate(54.182 151.698)" fill="#204620"/>
      <rect id="Rectangle_116" data-name="Rectangle 116" width="10.836" height="10.836" transform="translate(65.017 151.698)" fill="#204620"/>
      <rect id="Rectangle_117" data-name="Rectangle 117" width="10.836" height="10.836" transform="translate(75.853 151.698)" fill="#204620"/>
      <rect id="Rectangle_118" data-name="Rectangle 118" width="10.836" height="10.836" transform="translate(86.688 151.698)" fill="#204620"/>
      <rect id="Rectangle_119" data-name="Rectangle 119" width="10.836" height="10.836" transform="translate(108.359 151.698)" fill="#204620"/>
      <rect id="Rectangle_120" data-name="Rectangle 120" width="10.836" height="10.836" transform="translate(140.862 151.698)" fill="#204620"/>
      <rect id="Rectangle_121" data-name="Rectangle 121" width="10.836" height="10.836" transform="translate(151.697 151.698)" fill="#204620"/>
      <rect id="Rectangle_122" data-name="Rectangle 122" width="10.836" height="10.836" transform="translate(162.533 151.698)" fill="#204620"/>
      <rect id="Rectangle_123" data-name="Rectangle 123" width="10.836" height="10.836" transform="translate(205.875 151.698)" fill="#204620"/>
      <rect id="Rectangle_124" data-name="Rectangle 124" width="10.836" height="10.836" transform="translate(216.71 151.698)" fill="#204620"/>
      <rect id="Rectangle_125" data-name="Rectangle 125" width="10.836" height="10.836" transform="translate(227.546 151.698)" fill="#204620"/>
      <rect id="Rectangle_126" data-name="Rectangle 126" width="10.836" height="10.836" transform="translate(238.381 151.698)" fill="#204620"/>
      <rect id="Rectangle_127" data-name="Rectangle 127" width="10.836" height="10.836" transform="translate(21.675 162.534)" fill="#204620"/>
      <rect id="Rectangle_128" data-name="Rectangle 128" width="10.836" height="10.836" transform="translate(32.511 162.534)" fill="#204620"/>
      <rect id="Rectangle_129" data-name="Rectangle 129" width="10.836" height="10.836" transform="translate(130.03 162.534)" fill="#204620"/>
      <rect id="Rectangle_130" data-name="Rectangle 130" width="10.836" height="10.836" transform="translate(195.039 162.534)" fill="#204620"/>
      <rect id="Rectangle_131" data-name="Rectangle 131" width="10.836" height="10.836" transform="translate(205.875 162.534)" fill="#204620"/>
      <rect id="Rectangle_132" data-name="Rectangle 132" width="10.836" height="10.836" transform="translate(216.71 162.534)" fill="#204620"/>
      <rect id="Rectangle_133" data-name="Rectangle 133" width="10.836" height="10.836" transform="translate(238.381 162.534)" fill="#204620"/>
      <rect id="Rectangle_134" data-name="Rectangle 134" width="10.836" height="10.836" transform="translate(249.217 162.534)" fill="#204620"/>
      <rect id="Rectangle_135" data-name="Rectangle 135" width="10.831" height="10.832" transform="translate(0.008 173.369)" fill="#204620"/>
      <rect id="Rectangle_136" data-name="Rectangle 136" width="10.836" height="10.836" transform="translate(10.84 173.369)" fill="#204620"/>
      <rect id="Rectangle_137" data-name="Rectangle 137" width="10.836" height="10.836" transform="translate(32.511 173.369)" fill="#204620"/>
      <rect id="Rectangle_138" data-name="Rectangle 138" width="10.836" height="10.836" transform="translate(54.182 173.369)" fill="#204620"/>
      <rect id="Rectangle_139" data-name="Rectangle 139" width="10.836" height="10.836" transform="translate(65.017 173.369)" fill="#204620"/>
      <rect id="Rectangle_140" data-name="Rectangle 140" width="10.836" height="10.836" transform="translate(75.853 173.369)" fill="#204620"/>
      <rect id="Rectangle_141" data-name="Rectangle 141" width="10.836" height="10.836" transform="translate(119.195 173.369)" fill="#204620"/>
      <rect id="Rectangle_142" data-name="Rectangle 142" width="10.836" height="10.836" transform="translate(130.03 173.369)" fill="#204620"/>
      <rect id="Rectangle_143" data-name="Rectangle 143" width="10.836" height="10.836" transform="translate(173.368 173.369)" fill="#204620"/>
      <rect id="Rectangle_144" data-name="Rectangle 144" width="10.831" height="10.832" transform="translate(184.216 173.361)" fill="#204620"/>
      <rect id="Rectangle_145" data-name="Rectangle 145" width="10.831" height="10.832" transform="translate(195.048 173.361)" fill="#204620"/>
      <rect id="Rectangle_146" data-name="Rectangle 146" width="10.831" height="10.832" transform="translate(205.879 173.361)" fill="#204620"/>
      <rect id="Rectangle_147" data-name="Rectangle 147" width="10.836" height="10.836" transform="translate(216.71 173.369)" fill="#204620"/>
      <rect id="Rectangle_148" data-name="Rectangle 148" width="10.836" height="10.836" transform="translate(227.546 173.369)" fill="#204620"/>
      <rect id="Rectangle_149" data-name="Rectangle 149" width="10.836" height="10.836" transform="translate(238.381 173.369)" fill="#204620"/>
      <rect id="Rectangle_150" data-name="Rectangle 150" width="10.836" height="10.836" transform="translate(86.688 184.205)" fill="#204620"/>
      <rect id="Rectangle_151" data-name="Rectangle 151" width="10.836" height="10.836" transform="translate(97.524 184.205)" fill="#204620"/>
      <rect id="Rectangle_152" data-name="Rectangle 152" width="10.836" height="10.836" transform="translate(130.03 184.205)" fill="#204620"/>
      <rect id="Rectangle_153" data-name="Rectangle 153" width="10.836" height="10.836" transform="translate(151.697 184.205)" fill="#204620"/>
      <rect id="Rectangle_154" data-name="Rectangle 154" width="10.836" height="10.836" transform="translate(162.533 184.205)" fill="#204620"/>
      <rect id="Rectangle_155" data-name="Rectangle 155" width="10.831" height="10.832" transform="translate(173.385 184.193)" fill="#204620"/>
      <rect id="Rectangle_156" data-name="Rectangle 156" width="10.831" height="10.832" transform="translate(216.71 184.193)" fill="#204620"/>
      <rect id="Rectangle_157" data-name="Rectangle 157" width="10.836" height="10.836" transform="translate(86.688 195.041)" fill="#204620"/>
      <rect id="Rectangle_158" data-name="Rectangle 158" width="10.836" height="10.836" transform="translate(119.195 195.041)" fill="#204620"/>
      <rect id="Rectangle_159" data-name="Rectangle 159" width="10.836" height="10.836" transform="translate(130.03 195.041)" fill="#204620"/>
      <rect id="Rectangle_160" data-name="Rectangle 160" width="10.836" height="10.836" transform="translate(140.862 195.041)" fill="#204620"/>
      <rect id="Rectangle_161" data-name="Rectangle 161" width="10.836" height="10.836" transform="translate(151.697 195.041)" fill="#204620"/>
      <rect id="Rectangle_162" data-name="Rectangle 162" width="10.831" height="10.832" transform="translate(173.385 195.024)" fill="#204620"/>
      <rect id="Rectangle_163" data-name="Rectangle 163" width="10.831" height="10.832" transform="translate(195.048 195.024)" fill="#204620"/>
      <rect id="Rectangle_164" data-name="Rectangle 164" width="10.831" height="10.832" transform="translate(216.71 195.024)" fill="#204620"/>
      <rect id="Rectangle_165" data-name="Rectangle 165" width="10.836" height="10.836" transform="translate(97.524 205.873)" fill="#204620"/>
      <rect id="Rectangle_166" data-name="Rectangle 166" width="10.836" height="10.836" transform="translate(130.03 205.873)" fill="#204620"/>
      <rect id="Rectangle_167" data-name="Rectangle 167" width="10.836" height="10.836" transform="translate(151.697 205.873)" fill="#204620"/>
      <rect id="Rectangle_168" data-name="Rectangle 168" width="10.831" height="10.874" transform="translate(173.385 205.856)" fill="#204620"/>
      <rect id="Rectangle_169" data-name="Rectangle 169" width="10.831" height="10.874" transform="translate(216.71 205.856)" fill="#204620"/>
      <rect id="Rectangle_170" data-name="Rectangle 170" width="10.836" height="10.836" transform="translate(227.546 205.873)" fill="#204620"/>
      <rect id="Rectangle_171" data-name="Rectangle 171" width="10.836" height="10.836" transform="translate(238.381 205.873)" fill="#204620"/>
      <rect id="Rectangle_172" data-name="Rectangle 172" width="10.836" height="10.836" transform="translate(86.688 216.709)" fill="#204620"/>
      <rect id="Rectangle_173" data-name="Rectangle 173" width="10.836" height="10.836" transform="translate(119.195 216.709)" fill="#204620"/>
      <rect id="Rectangle_174" data-name="Rectangle 174" width="10.836" height="10.836" transform="translate(130.03 216.709)" fill="#204620"/>
      <rect id="Rectangle_175" data-name="Rectangle 175" width="10.836" height="10.836" transform="translate(173.368 216.709)" fill="#204620"/>
      <rect id="Rectangle_176" data-name="Rectangle 176" width="10.831" height="10.832" transform="translate(184.216 216.73)" fill="#204620"/>
      <rect id="Rectangle_177" data-name="Rectangle 177" width="10.831" height="10.832" transform="translate(195.048 216.73)" fill="#204620"/>
      <rect id="Rectangle_178" data-name="Rectangle 178" width="10.831" height="10.832" transform="translate(205.879 216.73)" fill="#204620"/>
      <rect id="Rectangle_179" data-name="Rectangle 179" width="10.836" height="10.836" transform="translate(216.71 216.709)" fill="#204620"/>
      <rect id="Rectangle_180" data-name="Rectangle 180" width="10.836" height="10.836" transform="translate(227.546 216.709)" fill="#204620"/>
      <rect id="Rectangle_181" data-name="Rectangle 181" width="10.836" height="10.836" transform="translate(238.381 216.709)" fill="#204620"/>
      <rect id="Rectangle_182" data-name="Rectangle 182" width="10.836" height="10.836" transform="translate(97.524 227.544)" fill="#204620"/>
      <rect id="Rectangle_183" data-name="Rectangle 183" width="10.836" height="10.836" transform="translate(108.359 227.544)" fill="#204620"/>
      <rect id="Rectangle_184" data-name="Rectangle 184" width="10.836" height="10.836" transform="translate(119.195 227.544)" fill="#204620"/>
      <rect id="Rectangle_185" data-name="Rectangle 185" width="10.836" height="10.836" transform="translate(130.03 227.544)" fill="#204620"/>
      <rect id="Rectangle_186" data-name="Rectangle 186" width="10.836" height="10.836" transform="translate(140.862 227.544)" fill="#204620"/>
      <rect id="Rectangle_187" data-name="Rectangle 187" width="10.836" height="10.836" transform="translate(162.533 227.544)" fill="#204620"/>
      <rect id="Rectangle_188" data-name="Rectangle 188" width="10.836" height="10.836" transform="translate(173.368 227.544)" fill="#204620"/>
      <rect id="Rectangle_189" data-name="Rectangle 189" width="10.836" height="10.836" transform="translate(184.204 227.544)" fill="#204620"/>
      <rect id="Rectangle_190" data-name="Rectangle 190" width="10.836" height="10.836" transform="translate(195.039 227.544)" fill="#204620"/>
      <rect id="Rectangle_191" data-name="Rectangle 191" width="10.836" height="10.836" transform="translate(205.875 227.544)" fill="#204620"/>
      <rect id="Rectangle_192" data-name="Rectangle 192" width="10.836" height="10.836" transform="translate(238.381 227.544)" fill="#204620"/>
      <rect id="Rectangle_193" data-name="Rectangle 193" width="10.836" height="10.836" transform="translate(249.217 227.544)" fill="#204620"/>
      <rect id="Rectangle_194" data-name="Rectangle 194" width="10.831" height="10.832" transform="translate(260.052 227.549)" fill="#204620"/>
      <rect id="Rectangle_195" data-name="Rectangle 195" width="10.836" height="10.836" transform="translate(108.359 238.38)" fill="#204620"/>
      <rect id="Rectangle_196" data-name="Rectangle 196" width="10.836" height="10.836" transform="translate(119.195 238.38)" fill="#204620"/>
      <rect id="Rectangle_197" data-name="Rectangle 197" width="10.836" height="10.836" transform="translate(130.03 238.38)" fill="#204620"/>
      <rect id="Rectangle_198" data-name="Rectangle 198" width="10.836" height="10.836" transform="translate(140.862 238.38)" fill="#204620"/>
      <rect id="Rectangle_199" data-name="Rectangle 199" width="10.836" height="10.836" transform="translate(195.039 238.38)" fill="#204620"/>
      <rect id="Rectangle_200" data-name="Rectangle 200" width="10.836" height="10.836" transform="translate(227.546 238.38)" fill="#204620"/>
      <rect id="Rectangle_201" data-name="Rectangle 201" width="10.836" height="10.836" transform="translate(249.217 238.38)" fill="#204620"/>
      <rect id="Rectangle_202" data-name="Rectangle 202" width="10.836" height="10.836" transform="translate(130.03 249.216)" fill="#204620"/>
      <rect id="Rectangle_203" data-name="Rectangle 203" width="10.836" height="10.836" transform="translate(162.533 249.216)" fill="#204620"/>
      <rect id="Rectangle_204" data-name="Rectangle 204" width="10.836" height="10.836" transform="translate(184.204 249.216)" fill="#204620"/>
      <rect id="Rectangle_205" data-name="Rectangle 205" width="10.836" height="10.836" transform="translate(205.875 249.216)" fill="#204620"/>
      <rect id="Rectangle_206" data-name="Rectangle 206" width="10.836" height="10.836" transform="translate(216.71 249.216)" fill="#204620"/>
      <rect id="Rectangle_207" data-name="Rectangle 207" width="10.836" height="10.836" transform="translate(227.546 249.216)" fill="#204620"/>
      <rect id="Rectangle_208" data-name="Rectangle 208" width="10.836" height="10.836" transform="translate(238.381 249.216)" fill="#204620"/>
      <rect id="Rectangle_209" data-name="Rectangle 209" width="10.836" height="10.836" transform="translate(249.217 249.216)" fill="#204620"/>
      <rect id="Rectangle_210" data-name="Rectangle 210" width="10.836" height="10.836" transform="translate(86.688 260.052)" fill="#204620"/>
      <rect id="Rectangle_211" data-name="Rectangle 211" width="10.831" height="10.836" transform="translate(97.524 260.052)" fill="#204620"/>
      <rect id="Rectangle_212" data-name="Rectangle 212" width="10.831" height="10.836" transform="translate(130.03 260.052)" fill="#204620"/>
      <rect id="Rectangle_213" data-name="Rectangle 213" width="10.836" height="10.836" transform="translate(162.533 260.052)" fill="#204620"/>
      <rect id="Rectangle_214" data-name="Rectangle 214" width="10.836" height="10.836" transform="translate(238.377 260.052)" fill="#204620"/>
      <rect id="Rectangle_215" data-name="Rectangle 215" width="10.836" height="10.836" transform="translate(249.217 260.052)" fill="#204620"/>
      <rect id="Rectangle_216" data-name="Rectangle 216" width="10.831" height="10.836" transform="translate(260.052 260.052)" fill="#204620"/>
      <rect id="Rectangle_217" data-name="Rectangle 217" width="32.536" height="32.495" transform="translate(21.663 21.676)" fill="#204620"/>
      <path id="Path_788" data-name="Path 788" d="M11.379,11.392h53.1V64.455h-53.1ZM0,75.834H75.861V.013H0Z" fill="#204620"/>
      <rect id="Rectangle_218" data-name="Rectangle 218" width="32.494" height="32.495" transform="translate(216.71 21.676)" fill="#204620"/>
      <path id="Path_789" data-name="Path 789" d="M206.427,11.392h53.1V64.455h-53.1ZM195.048,75.834h75.819V.013H195.048Z" fill="#204620"/>
      <rect id="Rectangle_219" data-name="Rectangle 219" width="32.536" height="32.495" transform="translate(21.663 216.73)" fill="#204620"/>
      <path id="Path_790" data-name="Path 790" d="M11.379,206.4h53.1v53.1h-53.1ZM0,270.888H75.861V195.024H0Z" fill="#204620"/>
      <rect id="Rectangle_220" data-name="Rectangle 220" width="32.536" height="32.495" transform="translate(21.663 21.676)" fill="#204620"/>
      <rect id="Rectangle_221" data-name="Rectangle 221" width="32.494" height="32.495" transform="translate(216.71 21.676)" fill="#204620"/>
      <rect id="Rectangle_222" data-name="Rectangle 222" width="32.536" height="32.495" transform="translate(21.663 216.73)" fill="#204620"/>
    </g>
    <path id="Color_Overlay" data-name="Color Overlay" d="M1364.169,3163.884h-10.835v-10.836h0v10.836h-10.836v-10.836h-32.5v-10.836h-10.836v-10.836h-32.506V3120.54h10.835V3109.7h.017v-32.5h-.017v-10.836h10.836v10.823h.013v32.537h10.832v0h10.831v0h10.832v21.65h-10.835v10.836h21.671v-10.836H1342.5v10.836h10.836v-10.836H1342.5V3120.54h-21.671v-43.351h-32.494v-10.833h10.823V3055.53h10.836v-10.836h10.835v-10.836h10.836v10.836h21.671v10.836h10.835v10.836h-10.835V3077.2h-21.671v0h0v32.5h0v-10.835h21.671v21.671h10.835v0H1375v10.832h-10.832v21.672H1375v10.836Zm-75.836-43.344v-10.814h-.013v10.814Zm54.165-54.175V3055.53h-10.835v10.836Zm-21.671-.009v0Zm-54.177,97.528v-21.672h10.835v21.672Zm-32.5,0v-21.672h-21.671v-10.836H1201.64V3120.54H1190.8V3109.7h10.836v10.836h21.671V3109.7h10.835v-10.832h-10.835v-10.836h10.835V3077.2h-10.835v-10.836h10.835V3055.53h10.832v-10.836h10.835v-21.672h10.836v10.836h21.671v10.836h-10.836v10.836h-32.5v32.507h10.831V3077.2h21.671v10.835h-10.835V3109.7h-10.836v-10.832h-10.831v21.667h10.831v21.672h-10.831v10.836h0v10.836Zm-32.506,0H1190.8v-10.836h21.667v10.836Zm-97.524,0v-75.863h75.861v75.863Zm11.38-11.379h53.1v-53.1h-53.1Zm172.824.543v-10.836h10.835v10.836Zm-162.541-10.828v-32.494h32.536v32.494Zm75.861-32.516v-10.832H1190.8V3077.2H1158.3v-10.836H1190.8V3077.2h21.671v10.835H1201.64v10.833h10.835V3109.7Zm97.524-10.852v-10.832h10.831v10.832ZM1136.627,3077.2v-10.836h-10.835V3055.53h10.835v-10.836h-10.835v-21.672h10.835v21.672H1158.3v-54.179h-10.835v-10.836H1158.3v10.836h10.835v10.836h10.836v-10.836h-10.836v-10.836H1190.8V2925.5h21.671v-10.836h10.836V2925.5h32.5v-10.836h-10.835V2893h10.835v21.667h10.836V2925.5h10.835v10.835h10.836v32.5h-10.836v-21.667h-10.835v-10.836h-10.836v10.836h10.836v32.5h10.835v10.836h10.836v21.672h-32.507v-10.836h-32.5v-10.836h10.835v-10.836h-21.671v10.836H1190.8v21.672h10.836v10.835H1190.8v-10.835h-21.671v10.835H1190.8v21.672h10.836v10.836h-54.177V3077.2Zm43.342-32.508v-10.836h-10.836v10.836Zm86.68-43.343v-21.672h-10.836v-32.5h-10.831v43.339h10.831v10.836Zm-32.5-32.508v-10.832h-10.835v10.832Zm-21.671,0v-10.836h10.836v-10.831H1201.64v21.667Zm32.5-21.667v-10.836h-21.667v10.836h21.667ZM1114.956,3077.2v0h-10.832v-10.832h21.667V3077.2Zm97.52-21.672v-10.836H1201.64v-10.836h10.835v10.836h10.836v10.836Zm140.858-10.836v-10.836h-21.671v-10.836H1342.5v-10.835h-21.671v10.835h-10.835v-21.671h10.835v-10.836H1288.32v-10.836H1342.5v21.672h10.836v10.836h10.835v10.835H1375v10.836h-10.832v10.836Zm-249.209,0v-10.836h10.832v10.836Zm195.031-10.836H1288.32v-10.836h21.671v10.836Zm-65.009,0h-10.835v-10.836h-10.836v-10.835H1201.64v-10.836h10.835v10.836h10.836v10.835h10.835v-10.835h10.836v21.671Zm-108.355-21.671h-10.836v-10.836h-10.832v-10.831h10.832v0h-10.832v-10.836h10.832v10.836h21.671v21.672Zm227.542-10.836v-10.836h10.835v10.836Zm10.835-10.836v-10.836H1375v10.836Zm-65-21.685v-75.821h75.819v75.821Zm11.379-11.38h53.1v-53.062h-53.1Zm-206.427,11.38v-75.821h75.861v75.821Zm11.38-11.38h53.1v-53.062h-53.1Zm205.331-10.283v-32.5h32.495v32.5Zm-195.047,0v-32.5h32.536v32.5Zm151.7-21.663v-10.836h10.836V2925.5Zm0-21.672h-21.667V2893h32.5v10.832Zm-54.173,0V2893h10.835v10.832Zm-21.671,0H1190.8V2893h21.667v10.832Z"/>
  </g>
</svg>
