<svg xmlns="http://www.w3.org/2000/svg" width="59" height="65.709" viewBox="0 0 59 65.709">
  <g id="Tree" transform="translate(-0.377 -0.493)">
    <path id="Path_60" data-name="Path 60" d="M25.234,55.837c-.682-.227-.815-.724-.715-1.373.178-1.16.35-2.322.481-3.489a5.646,5.646,0,0,0-.9-3.535c-.212-.363-.375-.438-.785-.253a9.679,9.679,0,0,1-8.929-.265,7.127,7.127,0,0,1-3.24-3.344.949.949,0,0,0-.855-.621A11.686,11.686,0,0,1,5.094,22a7.123,7.123,0,0,1,1.131-.722c.34-.175.374-.366.251-.709a10.336,10.336,0,0,1,.132-7.386,10.53,10.53,0,0,1,12.8-6.2c.513.164.716.09.947-.395A10.358,10.358,0,0,1,31.493.629a10.113,10.113,0,0,1,7.867,5.892c.256.53.457.623,1.028.444a10.584,10.584,0,0,1,12.179,4.993,1.053,1.053,0,0,1-.355,1.454,1.158,1.158,0,0,1-1.372-.665,7.782,7.782,0,0,0-2.007-2.371,8.21,8.21,0,0,0-4.968-1.924,7.894,7.894,0,0,0-3.817.609c-1.176.487-1.455.385-1.982-.748a7.925,7.925,0,0,0-2.928-4.148,7.8,7.8,0,0,0-4.633-1.739,8.317,8.317,0,0,0-7.213,3,8.067,8.067,0,0,0-1.668,3c-.159.515-.442.961-1.078.9a3.1,3.1,0,0,1-.849-.268A8.655,8.655,0,0,0,8.514,20.652c.492,1.114.41,1.36-.709,1.893a9.3,9.3,0,0,0-2.973,2.194,9.8,9.8,0,0,0,6.42,16.436,1.343,1.343,0,0,1,1.316,1c1.017,3.014,4.735,4.405,7.288,4a6.442,6.442,0,0,0,2.637-.647c.306-.121.346-.268.143-.513-.108-.129-.2-.269-.3-.4a3.936,3.936,0,0,0-.187-.406c-.946-1.576-1.889-3.153-2.846-4.72a2.288,2.288,0,0,1-.2-2.424,3.177,3.177,0,0,1,1.84-1.3,2.24,2.24,0,0,1,2.7.686c1.011,1.242,2,2.5,3.027,3.733a11.9,11.9,0,0,0,1.378,1.609,3.423,3.423,0,0,0,.139-.424c.436-2.476.883-4.951,1.293-7.431a2.173,2.173,0,0,1,1.6-2.017,2.959,2.959,0,0,1,2.985.649,1.859,1.859,0,0,1,.573,1.381c-.01,1.008-.236,1.989-.333,2.986a27.388,27.388,0,0,0-.323,2.9c.815-.823,1.5-1.523,2.195-2.213A2.041,2.041,0,0,1,38.216,37a2.158,2.158,0,0,1,1.252,3.445c-.874,1.42-1.776,2.821-2.678,4.223-.212.33-.24.52.179.722a7.107,7.107,0,0,0,4.324.783c2.214.026,5.374-1.608,6.042-4.484a1.825,1.825,0,0,1,1.277-.532,3.1,3.1,0,0,0,.511-.01,9.761,9.761,0,0,0,7.133-4.891,9.919,9.919,0,0,0-.594-10.581A10.425,10.425,0,0,0,51.7,22.424c-.757-.363-.944-.738-.614-1.421a9.216,9.216,0,0,0,.887-4.467,1.042,1.042,0,0,1,.867-1.174c.764.15,1,.4,1.033,1.137a9.828,9.828,0,0,1-.564,3.967c-.17.454-.063.651.328.893a11.439,11.439,0,0,1,5.732,10.729,11.611,11.611,0,0,1-9.977,10.882.828.828,0,0,0-.735.5,8.3,8.3,0,0,1-6.992,4.606,9.15,9.15,0,0,1-5.743-1.14c-.354-.2-.5-.127-.67.217a5.722,5.722,0,0,0-.616,3.162,36.489,36.489,0,0,0,1.558,8.544A17.655,17.655,0,0,0,39.18,64.4c.64.786.588,1.193-.194,1.8H20.758c-.764-.595-.842-1-.237-1.749a17.257,17.257,0,0,0,3.037-5.792,1.142,1.142,0,0,1,1.255-.934c.718.522.778.723.508,1.568a19.575,19.575,0,0,1-2.054,4.535c-.182.287-.3.485.209.483q5.382-.023,10.766-.027c.641,0,1.282-.007,1.922.019.488.02.558-.089.287-.519A20.638,20.638,0,0,1,34,58.107a49.684,49.684,0,0,1-1.116-6.479,8.847,8.847,0,0,1,1.293-6.352c1.2-1.795,2.329-3.63,3.471-5.459.165-.266.565-.616.225-.89-.321-.258-.533.22-.742.423-.828.8-1.63,1.634-2.449,2.447a1.623,1.623,0,0,1-1.416.577c-1.036-.148-1.5-.891-1.319-2.146q.419-2.972.837-5.947c.041-.287.02-.523-.351-.536-1.007-.07-1-.069-1.17.9q-.706,4.036-1.421,8.07a1.61,1.61,0,0,1-1.231,1.476,1.642,1.642,0,0,1-1.712-.747c-1.511-1.885-3.039-3.756-4.567-5.629-.362-.444-.8-.439-1.389-.008-.447.328-.076.613.079.872q2.358,3.969,4.739,7.925a7.579,7.579,0,0,1,1.107,4.844c-.123,1.1-.315,2.2-.475,3.3C26.28,55.52,26.038,55.749,25.234,55.837Z" transform="translate(0 0)" fill="#14171a"/>
    <path id="Path_61" data-name="Path 61" d="M27.406,59.381c.8-.088,1.046-.318,1.159-1.094.16-1.1.352-2.193.475-3.3a7.578,7.578,0,0,0-1.107-4.844q-2.376-3.959-4.739-7.925c-.154-.259-.526-.544-.079-.872.587-.431,1.027-.436,1.389.008,1.528,1.871,3.056,3.743,4.567,5.629a1.643,1.643,0,0,0,1.712.747,1.61,1.61,0,0,0,1.231-1.476q.712-4.035,1.421-8.07c.17-.97.164-.971,1.17-.9-.014.233-.007.47-.043.7-.192,1.215-.395,2.429-.592,3.644-.37,2.283-.764,4.562-1.1,6.851a31.411,31.411,0,0,0-.685,5.172c.015.761.159,1.519.241,2.279a29.9,29.9,0,0,0,1.627,7.453,18.467,18.467,0,0,0,2.362,4.441q-5.382.011-10.766.027c-.511,0-.391-.2-.209-.483A19.558,19.558,0,0,0,27.5,62.837c.27-.845.211-1.045-.508-1.568C27.125,60.639,27.266,60.01,27.406,59.381Z" transform="translate(-2.171 -3.544)" fill="#bd6001"/>
    <path id="Path_62" data-name="Path 62" d="M48.5,9.3a8.21,8.21,0,0,1,4.968,1.924,7.792,7.792,0,0,1,2.007,2.371,1.158,1.158,0,0,0,1.372.665,8.627,8.627,0,0,1,.628,1.949,1.045,1.045,0,0,0-.867,1.174,9.207,9.207,0,0,1-.887,4.467c-.331.683-.144,1.058.614,1.421A10.435,10.435,0,0,1,60.3,26.516,9.919,9.919,0,0,1,60.894,37.1a9.761,9.761,0,0,1-7.133,4.891,3.309,3.309,0,0,1-.511.01.7.7,0,0,1,.339-.279,9.765,9.765,0,0,0,3.346-2.812,10.5,10.5,0,0,0,1.145-11.47,9.9,9.9,0,0,0-4.844-4.814c-.324-.154-.6-.276-.382-.757a9.166,9.166,0,0,0,.8-5.213A9.511,9.511,0,0,0,50.474,10.7,20.646,20.646,0,0,0,48.5,9.3Z" transform="translate(-4.639 -0.849)" fill="#097b09"/>
    <path id="Path_63" data-name="Path 63" d="M44.062,8.654a20.747,20.747,0,0,1,1.972,1.4,9.506,9.506,0,0,1,3.176,5.953,9.172,9.172,0,0,1-.8,5.213c-.221.481.058.6.382.757a9.894,9.894,0,0,1,4.844,4.814A10.5,10.5,0,0,1,52.5,38.262a9.791,9.791,0,0,1-3.346,2.812.705.705,0,0,0-.339.279,1.824,1.824,0,0,0-1.277.532c-.89.161-1.777.34-2.671.473a.572.572,0,0,0-.5.475,6.008,6.008,0,0,1-1.314,2.076c-.473.541-1.157.847-1.554,1.459a7.107,7.107,0,0,1-4.324-.783c-.419-.2-.392-.392-.179-.722.9-1.4,1.8-2.8,2.678-4.223A2.158,2.158,0,0,0,38.414,37.2a2.041,2.041,0,0,0-2.041.627c-.695.69-1.38,1.391-2.195,2.213a27.179,27.179,0,0,1,.323-2.9c.1-1,.324-1.978.333-2.986a1.859,1.859,0,0,0-.573-1.381,2.959,2.959,0,0,0-2.985-.649,2.173,2.173,0,0,0-1.6,2.017c-.409,2.48-.857,4.955-1.293,7.431a3.473,3.473,0,0,1-.139.424,11.945,11.945,0,0,1-1.378-1.609c-1.026-1.231-2.016-2.49-3.027-3.733a2.24,2.24,0,0,0-2.7-.686,3.176,3.176,0,0,0-1.84,1.3,2.286,2.286,0,0,0,.2,2.424c.958,1.568,1.9,3.145,2.846,4.72a4.026,4.026,0,0,1,.187.406l-2.478,1.565c-2.553.4-6.27-.99-7.288-4a1.342,1.342,0,0,0-1.316-1A9.8,9.8,0,0,1,5.03,24.94,9.289,9.289,0,0,1,8,22.746c1.12-.533,1.2-.778.709-1.893A8.655,8.655,0,0,1,19.9,9.259a3.126,3.126,0,0,0,.849.268c.636.065.918-.381,1.078-.9a8.074,8.074,0,0,1,1.668-3,8.317,8.317,0,0,1,7.213-3c.042.071.065.173.127.21a13.4,13.4,0,0,1,3.857,3.631,4.486,4.486,0,0,0,3.576,2.046c.527,1.133.807,1.235,1.982.748A7.915,7.915,0,0,1,44.062,8.654ZM18.379,11.84a5.8,5.8,0,0,0-3.225.854,6.586,6.586,0,0,0-2.911,8.523c.215.507.192.648-.374.8a6.621,6.621,0,0,0-4.778,7.97A6.189,6.189,0,0,0,9.37,33.58a5.483,5.483,0,0,0,6.571.672,70,70,0,0,0,8.909-6.725c1.992-1.685,3.822-3.539,5.645-5.4a27.3,27.3,0,0,0,3.814-4.708,3.346,3.346,0,0,0,.545-2.349,6.641,6.641,0,0,0-12.4-2.472c-.211.389-.391.408-.741.192A6.279,6.279,0,0,0,18.379,11.84Z" transform="translate(-0.197 -0.203)" fill="#129a12"/>
    <path id="Path_64" data-name="Path 64" d="M37.4,67.829a18.467,18.467,0,0,1-2.362-4.441,29.9,29.9,0,0,1-1.627-7.453c-.082-.76-.226-1.518-.241-2.279a31.437,31.437,0,0,1,.685-5.172c.336-2.288.73-4.568,1.1-6.851.2-1.214.4-2.428.592-3.644.036-.23.03-.466.043-.7.37.014.39.249.351.536q-.42,2.972-.837,5.947c-.176,1.254.284,2,1.319,2.146a1.622,1.622,0,0,0,1.416-.577c.819-.813,1.621-1.644,2.449-2.447.209-.2.422-.681.742-.423.34.274-.059.625-.225.89-1.143,1.829-2.275,3.664-3.471,5.459a8.843,8.843,0,0,0-1.293,6.352,49.711,49.711,0,0,0,1.116,6.479,20.65,20.65,0,0,0,2.451,5.679c.271.429.2.539-.287.519C38.687,67.823,38.045,67.833,37.4,67.829Z" transform="translate(-3.161 -3.547)" fill="#984c01"/>
    <path id="Path_65" data-name="Path 65" d="M41.282,8.519a4.484,4.484,0,0,1-3.576-2.046,13.415,13.415,0,0,0-3.857-3.631c-.062-.036-.085-.138-.127-.21a7.794,7.794,0,0,1,4.633,1.739A7.937,7.937,0,0,1,41.282,8.519Z" transform="translate(-3.214 -0.206)" fill="#097b09"/>
    <path id="Path_66" data-name="Path 66" d="M45.658,50.561c.4-.613,1.081-.918,1.554-1.459a6.021,6.021,0,0,0,1.314-2.076.572.572,0,0,1,.5-.475c.894-.134,1.781-.312,2.671-.473C51.033,48.951,47.873,50.587,45.658,50.561Z" transform="translate(-4.365 -4.394)" fill="#097a09"/>
    <path id="Path_67" data-name="Path 67" d="M21.935,50.888l2.478-1.565c.1.136.2.275.3.4.2.245.164.392-.143.513A6.413,6.413,0,0,1,21.935,50.888Z" transform="translate(-2.078 -4.707)" fill="#018b01"/>
    <path id="Path_68" data-name="Path 68" d="M18.86,12.538a6.263,6.263,0,0,1,3.329.951c.351.216.53.2.741-.192a6.641,6.641,0,0,1,12.4,2.472,3.347,3.347,0,0,1-.545,2.349,27.232,27.232,0,0,1-3.814,4.708c-1.823,1.861-3.653,3.715-5.645,5.4a70,70,0,0,1-8.909,6.725,5.481,5.481,0,0,1-6.571-.672,6.187,6.187,0,0,1-2.278-3.594,6.62,6.62,0,0,1,4.778-7.97c.567-.152.588-.293.374-.8a6.586,6.586,0,0,1,2.911-8.523A5.806,5.806,0,0,1,18.86,12.538Z" transform="translate(-0.678 -0.901)" fill="#28a428"/>
  </g>
</svg>
