<svg xmlns="http://www.w3.org/2000/svg" width="58" height="58" viewBox="0 0 58 58">
  <g id="WhatsApp_icon_-_pe" data-name="WhatsApp icon - pe" transform="translate(-4365.5 -5962.5)">
    <g id="Group_78" data-name="Group 78">
      <rect id="Rectangle_441" data-name="Rectangle 441" width="56" height="56" rx="28" transform="translate(4366.5 5963.5)" fill="#40A578" stroke="none" stroke-width="2"/>
      <path id="Path_377" data-name="Path 377" d="M30.2,27.283a2.125,2.125,0,0,0-1.8-.411c-.475.194-.774.915-1.079,1.3a.433.433,0,0,1-.581.129,8.287,8.287,0,0,1-4.094-3.508.5.5,0,0,1,.065-.68,2.668,2.668,0,0,0,.745-1.208,2.652,2.652,0,0,0-.334-1.425c-.246-.528-.516-1.3-1.05-1.59a1.443,1.443,0,0,0-1.578.229,3.221,3.221,0,0,0-1.1,2.528,3.3,3.3,0,0,0,.1.8,6.85,6.85,0,0,0,.768,1.771,13.746,13.746,0,0,0,.809,1.22,12.334,12.334,0,0,0,3.478,3.226,10.984,10.984,0,0,0,2.17,1.027,4.86,4.86,0,0,0,2.516.4,3.085,3.085,0,0,0,2.276-1.707l.012.023a1.454,1.454,0,0,0,.106-.874c-.129-.592-.939-.95-1.425-1.244ZM25.418,35.66a10.35,10.35,0,0,1-5.162-1.39,1.068,1.068,0,0,0-.551-.153,1.187,1.187,0,0,0-.282.023l-3.4.939,1.185-2.61A1.084,1.084,0,0,0,17.1,31.39a10.241,10.241,0,1,1,8.316,4.27Zm0-22.66A12.434,12.434,0,0,0,13,25.418a12.27,12.27,0,0,0,1.989,6.728L13.1,36.305a1.061,1.061,0,0,0,.164,1.144,1.106,1.106,0,0,0,.821.387,1.672,1.672,0,0,0,.293-.041l5.191-1.437A12.414,12.414,0,1,0,25.424,13Z" transform="translate(4369 5966)" fill="#fff"/>
    </g>
  </g>
</svg>
